<svg width="391" height="129" viewBox="0 0 391 129" fill="none" xmlns="http://www.w3.org/2000/svg">
<path d="M9.55126 104.62C4.28626 104.62 0.371264 100.57 0.371264 95.305V9.445C0.371264 4.17999 4.28626 0.129997 9.55126 0.129997C14.6813 0.129997 18.5963 4.17999 18.5963 9.445V95.305C18.5963 100.57 14.6813 104.62 9.55126 104.62ZM48.5061 0.804996C54.5811 0.804996 59.8461 5.665 59.8461 11.875C59.8461 17.95 54.5811 22.81 48.5061 22.81C42.1611 22.81 37.0311 17.95 37.0311 11.875C37.0311 5.665 42.1611 0.804996 48.5061 0.804996ZM48.3711 104.62C43.2411 104.62 39.3261 100.57 39.3261 95.305V43.87C39.3261 38.605 43.2411 34.69 48.5061 34.69C53.6361 34.69 57.5511 38.605 57.5511 43.87V95.305C57.5511 100.57 53.6361 104.62 48.3711 104.62ZM114.596 34.69C129.851 34.69 139.706 45.22 139.706 61.555V95.305C139.706 100.705 135.926 104.62 130.661 104.62C125.531 104.62 121.616 100.57 121.616 95.305V63.985C121.616 56.29 116.621 51.025 109.196 51.025C101.771 51.025 96.506 56.425 96.506 63.985V95.305C96.506 100.705 92.591 104.62 87.461 104.62C82.196 104.62 78.281 100.57 78.281 95.305V43.87C78.281 38.605 82.196 34.69 87.326 34.69C91.511 34.69 94.886 37.525 95.831 41.575C100.556 37.255 107.171 34.69 114.596 34.69ZM169.131 0.129997C174.396 0.129997 178.176 4.04499 178.176 9.445V95.305C178.176 100.705 174.261 104.62 169.131 104.62C163.866 104.62 159.951 100.57 159.951 95.305V9.445C159.951 4.17999 163.866 0.129997 169.131 0.129997ZM219.621 90.58C221.106 92.47 221.781 94.225 221.781 96.25C221.781 100.975 218.136 104.62 213.546 104.62C210.711 104.62 208.551 103.54 206.796 101.245L183.981 73.165C181.956 70.465 181.146 68.575 181.146 66.55C181.146 64.255 182.091 62.365 184.386 59.8L205.716 37.525C207.471 35.635 209.766 34.69 212.061 34.69C216.786 34.69 220.431 38.2 220.431 42.79C220.431 45.085 219.486 47.245 217.461 49.27L200.451 66.55L219.621 90.58ZM247.373 0.804996C253.448 0.804996 258.713 5.665 258.713 11.875C258.713 17.95 253.448 22.81 247.373 22.81C241.028 22.81 235.898 17.95 235.898 11.875C235.898 5.665 241.028 0.804996 247.373 0.804996ZM247.238 104.62C242.108 104.62 238.193 100.57 238.193 95.305V43.87C238.193 38.605 242.108 34.69 247.373 34.69C252.503 34.69 256.418 38.605 256.418 43.87V95.305C256.418 100.57 252.503 104.62 247.238 104.62ZM308.198 16.465C301.988 16.465 298.478 20.245 298.478 26.86V36.175H306.848C311.303 36.175 314.543 39.415 314.543 43.87C314.543 48.325 311.303 51.565 306.848 51.565H298.478V95.305C298.478 100.705 294.563 104.62 289.433 104.62C284.168 104.62 280.253 100.57 280.253 95.305V51.565H277.283C272.828 51.565 269.453 48.325 269.453 43.87C269.453 39.415 272.828 36.175 277.283 36.175H280.253V25.24C280.253 9.445 289.568 0.129997 305.093 0.129997C308.603 0.129997 311.303 0.669998 313.733 1.885C316.568 3.1 318.323 5.8 318.323 9.17499C318.323 13.63 315.218 16.6 310.358 16.6C309.818 16.6 309.143 16.465 308.198 16.465ZM382.119 34.69C386.844 34.69 390.894 38.74 390.894 43.465C390.894 44.815 390.624 46.165 389.814 47.65L360.384 107.995C353.229 122.71 345.129 128.92 332.979 128.92C330.009 128.92 327.309 128.38 325.284 127.435C322.449 126.22 320.694 123.385 320.694 120.28C320.694 115.825 324.339 112.45 328.929 112.45C329.604 112.45 330.144 112.585 330.549 112.585C336.354 112.585 340.269 110.155 343.239 104.08L345.669 98.68L322.584 47.785C321.774 46.165 321.369 44.815 321.369 43.465C321.369 38.74 325.419 34.69 330.279 34.69C333.789 34.69 336.894 36.58 338.244 39.82L355.929 79.375L374.019 39.82C375.369 36.715 378.474 34.69 382.119 34.69Z" fill="black"/>
</svg>
