<svg xmlns="http://www.w3.org/2000/svg" fill="none" class="only-dark-theme" viewBox="0 -0.03 108.07 28.03">
	<g clip-path="url(#a)">
		<path fill="#fff" fill-rule="evenodd" d="M7 18.073v2.921l-7-7 1.46-1.46L7 18.075Zm2.921 2.921H7l7 7 1.46-1.46-5.539-5.54Zm16.614-5.538 1.461-1.462-14-14-1.458 1.466 5.539 5.538H14.73L10.864 3.14 9.404 4.6l2.405 2.404h-1.68V17.87h10.865v-1.68l2.405 2.404 1.46-1.46-3.865-3.866V9.921l5.54 5.535ZM7.73 6.27 6.265 7.732l1.568 1.566 1.461-1.46L7.73 6.27Zm12.432 12.432-1.46 1.462 1.566 1.568 1.462-1.462-1.568-1.568ZM4.596 9.404l-1.462 1.462L7 14.732v-2.923L4.596 9.404ZM16.192 21h-2.924l3.866 3.866 1.462-1.462L16.192 21Z" clip-rule="evenodd" />
		<path fill="#fff" d="M106.152 20.978c-.943 0-1.68-.256-2.207-.77-.526-.513-.789-1.226-.789-2.13v-5.6h-1.692v-2.095h1.701l.302-2.8h1.992v2.8h2.598v2.1h-2.598v5.293c-.006.289.101.568.299.779a1.026 1.026 0 0 0 .793.325h1.506v2.098h-1.905Zm-10.172.197c-1.257 0-2.268-.3-3.033-.9a4.025 4.025 0 0 1-1.469-2.389h2.5c.109.364.352.674.679.867.401.231.86.344 1.323.326 1.333 0 2.003-.373 2.003-1.094 0-.36-.21-.634-.629-.823a7.037 7.037 0 0 0-1.52-.453 18.024 18.024 0 0 1-1.793-.44 3.113 3.113 0 0 1-1.533-1.02c-.416-.499-.627-1.152-.627-1.962a2.773 2.773 0 0 1 1.057-2.22c.707-.59 1.687-.884 2.94-.882 1.252 0 2.24.28 2.986.838a3.758 3.758 0 0 1 1.417 2.264h-2.503c-.266-.667-.898-1-1.895-1-1.07 0-1.601.334-1.601 1.004a.859.859 0 0 0 .45.746c.342.208.723.345 1.12.402.496.084.987.197 1.47.34.501.142.992.318 1.47.526.465.211.859.554 1.133.985a3.01 3.01 0 0 1 .453 1.697 2.797 2.797 0 0 1-1.12 2.304c-.745.588-1.838.883-3.278.884Zm-7.454-9.932c-.769-.693-1.85-1.04-3.234-1.04-1.108 0-2.036.298-2.784.894a4.183 4.183 0 0 0-1.493 2.31h2.363c.12-.347.35-.645.654-.85a2.082 2.082 0 0 1 1.25-.353 2.24 2.24 0 0 1 1.537.499 1.765 1.765 0 0 1 .56 1.396v.508h-2.694c-1.25 0-2.229.31-2.934.933a3.022 3.022 0 0 0-1.059 2.356 3.105 3.105 0 0 0 .986 2.372c.657.622 1.528.933 2.613.933a3.989 3.989 0 0 0 1.934-.45c.48-.233.885-.595 1.172-1.045h.097l.187 1.307h2.001v-6.907c.001-1.213-.384-2.168-1.156-2.863Zm-1.136 5.66a2.139 2.139 0 0 1-.7 1.68c-.463.412-1.096.618-1.899.62-.584 0-1.032-.135-1.34-.398a1.261 1.261 0 0 1-.467-1.01c0-.934.61-1.396 1.807-1.396h2.599v.504Zm-12.7 4.295c-1.515 0-2.727-.487-3.635-1.46-.906-.973-1.363-2.318-1.363-4.04 0-1.72.454-3.06 1.357-4.035.903-.975 2.119-1.46 3.642-1.46 1.237 0 2.262.33 3.076.991a4.688 4.688 0 0 1 1.62 2.505h-2.292a2.573 2.573 0 0 0-2.404-1.396 2.427 2.427 0 0 0-1.962.887c-.498.593-.747 1.43-.747 2.509s.25 1.915.747 2.51a2.426 2.426 0 0 0 1.962.89 2.578 2.578 0 0 0 2.404-1.4h2.292a4.697 4.697 0 0 1-1.62 2.51c-.811.659-1.837.989-3.076.989Zm-13.521 3.806 1.6-4.002-4.297-10.595h2.5l2.9 7.498h.095l2.905-7.498h2.5l-5.804 14.597h-2.399Zm-4.857-13.761c-.77-.693-1.85-1.04-3.237-1.04-1.107 0-2.034.298-2.783.894a4.164 4.164 0 0 0-1.483 2.31h2.362c.12-.347.349-.645.653-.85.369-.247.807-.37 1.25-.353.65 0 1.164.166 1.537.499a1.758 1.758 0 0 1 .56 1.396v.508h-2.707c-1.244 0-2.222.31-2.932.933a3.017 3.017 0 0 0-1.06 2.356 3.105 3.105 0 0 0 .985 2.363c.657.622 1.528.933 2.614.933a3.981 3.981 0 0 0 1.931-.45 2.89 2.89 0 0 0 1.175-1.045h.095l.198 1.307h1.997v-6.907c0-1.207-.385-2.159-1.155-2.854Zm-1.14 5.66a2.139 2.139 0 0 1-.7 1.68c-.464.412-1.097.618-1.901.62-.583 0-1.032-.135-1.34-.398a1.267 1.267 0 0 1-.467-1.01c.007-.93.61-1.395 1.807-1.396h2.6v.504Zm-11.828-1.204c.357-.095.701-.23 1.027-.404.38-.208.736-.458 1.06-.746.392-.361.694-.809.883-1.307.227-.585.34-1.209.33-1.837 0-1.332-.425-2.4-1.276-3.203-.852-.803-1.96-1.202-3.323-1.198h-5.8v14h2.5v-5.197h1.896l3.603 5.195h2.8l-3.7-5.303Zm-4.6-2.106V9.206h3.097c.71 0 1.27.187 1.68.577.411.39.62.924.62 1.617 0 .692-.207 1.234-.623 1.62a2.344 2.344 0 0 1-1.656.573h-3.117Z" />
	</g>
	<defs>
		<clipPath id="a">
			<path fill="#fff" d="M0 0h108.059v28H0z" />
		</clipPath>
	</defs>
</svg>
