<svg xmlns="http://www.w3.org/2000/svg" fill="none" viewBox="3 1.13 102.6 21.13">
	<path fill="#fff" d="M13 22.2338v-10.8L3.9436 5.99999 12 1.16617l9 5.4V17.4338l-8 4.8Z" />
	<path fill="#fff" d="M3 17.4338V7.76624l3 1.8v5.99996l5 3v3.6676l-8-4.8Z" />
	<path fill="#fff" fill-rule="evenodd" d="M35.1712 5v10.9583h4.2307v2.0408H33V5h2.1712Zm11.8114 3.92279h2.106v9.07631h-2.106v-.9505c-.8635.8076-1.7922 1.2114-2.7862 1.2114-1.2549 0-2.2924-.4535-3.1124-1.3605-.8139-.9257-1.2208-2.0812-1.2208-3.4665 0-1.3605.4069-2.4943 1.2208-3.4013.8138-.90702 1.8326-1.36051 3.0565-1.36051 1.0561 0 2.0035.43486 2.8421 1.3046v-1.053ZM42.0065 13.433c0 .8697.233 1.5779.6989 2.1246.4784.5529 1.081.8294 1.8078.8294.7766 0 1.404-.2672 1.8824-.8014.4783-.5529.7175-1.2549.7175-2.106s-.2392-1.5531-.7175-2.106c-.4784-.5405-1.0996-.8107-1.8638-.8107-.7206 0-1.3232.2733-1.8078.82-.4783.5529-.7175 1.2363-.7175 2.0501ZM53.0631 4v5.97579c.8387-.86974 1.7892-1.3046 2.8515-1.3046 1.2238 0 2.2427.4566 3.0565 1.36981.8138.907 1.2207 2.0377 1.2207 3.392 0 1.3978-.41 2.5533-1.23 3.4665-.8139.907-1.842 1.3605-3.0845 1.3605-1.0499 0-1.9879-.4038-2.8142-1.2114v.9505h-2.0967V4h2.0967Zm4.9854 9.5262c0-.8698-.236-1.578-.7082-2.1247-.4783-.5591-1.0778-.8386-1.7984-.8386-.7704 0-1.3978.2702-1.8824.8107-.4784.5342-.7175 1.23-.7175 2.0873 0 .8822.236 1.5873.7082 2.1154.4721.5404 1.0934.8107 1.8637.8107.7268 0 1.3294-.2703 1.8078-.8107.4846-.5467.7268-1.2301.7268-2.0501Zm11.858.4286h-6.5043c.0559.7455.2982 1.3388.7268 1.7799.4287.4348.9785.6523 1.6494.6523.5219 0 .9536-.1243 1.2953-.3728.3355-.2485.7175-.7082 1.1462-1.3791l1.7705.9877c-.2733.466-.5622.8651-.8666 1.1975-.3044.3323-.6306.6057-.9785.82-.3479.2143-.7237.3712-1.1275.4706-.4038.0994-.8418.1491-1.3139.1491-1.3543 0-2.4415-.4349-3.2615-1.3046-.8201-.8759-1.2301-2.0377-1.2301-3.4851 0-1.4351.3976-2.5968 1.1928-3.4852.8014-.87595 1.8637-1.31391 3.1869-1.31391 1.3357 0 2.3918.42554 3.1684 1.27664.7703.84487 1.1555 2.01587 1.1555 3.51307l-.0094.4939Zm-2.1525-1.7146c-.292-1.1182-.9971-1.6773-2.1154-1.6773-.2547 0-.4938.0388-.7175.1164-.2236.0777-.4271.1895-.6104.3355-.1832.146-.3401.3215-.4705.5265-.1305.205-.2299.438-.2982.6989h4.212ZM73.5269 4v13.9991h-2.0967V4h2.0967Zm3.9838 0v5.97579c.8387-.86974 1.7892-1.3046 2.8515-1.3046 1.2239 0 2.2427.4566 3.0565 1.36981.8138.907 1.2207 2.0377 1.2207 3.392 0 1.3978-.41 2.5533-1.23 3.4665-.8138.907-1.842 1.3605-3.0845 1.3605-1.0499 0-1.9879-.4038-2.8142-1.2114v.9505H75.414V4h2.0967Zm4.9855 9.5262c0-.8698-.2361-1.578-.7083-2.1247-.4783-.5591-1.0778-.8386-1.7984-.8386-.7704 0-1.3978.2702-1.8824.8107-.4784.5342-.7175 1.23-.7175 2.0873 0 .8822.236 1.5873.7082 2.1154.4721.5404 1.0934.8107 1.8637.8107.7269 0 1.3295-.2703 1.8078-.8107.4846-.5467.7269-1.2301.7269-2.0501Zm3.1637-.1305c0-1.3108.4691-2.4259 1.4071-3.3454.9381-.9194 2.0812-1.37911 3.4293-1.37911 1.3543 0 2.5036.46281 3.4478 1.38851.9319.9256 1.3978 2.0625 1.3978 3.4106 0 1.3605-.469 2.5004-1.4071 3.4199-.9443.9132-2.1029 1.3698-3.4758 1.3698-1.3605 0-2.5005-.4659-3.4199-1.3978-.9195-.9194-1.3792-2.0749-1.3792-3.4665Zm2.1433.0373c0 .907.2423 1.6245.7268 2.1526.497.5342 1.1524.8014 1.9663.8014.82 0 1.4754-.2641 1.9662-.7921.4908-.5281.7362-1.2332.7362-2.1153 0-.8822-.2454-1.5873-.7362-2.1153-.497-.5343-1.1524-.8014-1.9662-.8014-.8014 0-1.4506.2671-1.9476.8014-.497.5342-.7455 1.2238-.7455 2.0687Zm11.3455-.3448-3.2615-4.16541h2.4974l2.0224 2.64651 2.059-2.64651h2.572l-3.355 4.16541 3.886 4.9109h-2.497l-2.665-3.392-2.7307 3.392h-2.5626l4.035-4.9109Z" clip-rule="evenodd" />
</svg>
